<svg width="767" height="538" viewBox="0 0 767 538" fill="none" xmlns="http://www.w3.org/2000/svg">
<path d="M163.44 261.563H249.082V278.35L196.445 340.661H249.936V361.289H161.591V344.644L214.228 282.191H163.44V261.563Z" fill="url(#paint0_linear_10_77)"/>
<path d="M370.876 261.563C384.154 261.563 394.396 264.646 401.604 270.81C408.812 276.88 412.416 285.463 412.416 296.56C412.416 308.225 408.812 317.33 401.604 323.874C394.396 330.323 384.154 333.548 370.876 333.548H352.097V361.289H326.063V261.563H370.876ZM370.876 313.062C376.282 313.062 380.407 311.734 383.253 309.079C386.193 306.423 387.663 302.487 387.663 297.271C387.663 292.244 386.193 288.451 383.253 285.89C380.407 283.329 376.282 282.049 370.876 282.049H352.097V313.062H370.876ZM366.323 324.016H391.646L415.404 361.289H385.956L366.323 324.016Z" fill="url(#paint1_linear_10_77)"/>
<path d="M426.753 261.563H454.778L479.674 334.117L504.712 261.563H531.458L492.336 361.289H465.448L426.753 261.563Z" fill="url(#paint2_linear_10_77)"/>
<path d="M549.443 261.563H628.114V282.049H575.477V301.112H622.992V321.456H575.477V340.803H629.536V361.289H549.443V261.563Z" fill="url(#paint3_linear_10_77)"/>
<path fill-rule="evenodd" clip-rule="evenodd" d="M298.132 261.563H272.098V278.35L298.132 273.259V261.563ZM272.098 287.853V361.289H298.132V282.191L272.098 287.853Z" fill="url(#paint4_linear_10_77)"/>
<path d="M293.075 382.993H307.719L321.003 407.24L333.966 382.993H348.611L321.883 433.087H320.043L293.075 382.993ZM313.721 414.442H328.365V439.089H313.721V414.442Z" fill="#072C5E"/>
<path d="M372.29 382.993H387.334L410.861 439.089H395.256L379.412 397.637L363.247 439.089H348.203L372.29 382.993ZM362.607 417.963H395.336V429.006H362.607V417.963Z" fill="#072C5E"/>
<path d="M445.385 382.993C452.534 382.993 458.082 384.727 462.03 388.194C465.978 391.609 467.952 396.437 467.952 402.679C467.952 409.24 465.978 414.362 462.03 418.043C458.082 421.671 452.534 423.484 445.385 423.484H428.981L435.383 417.083V439.089H420.738V382.993H445.385ZM444.665 411.961C447.653 411.961 449.947 411.214 451.547 409.721C453.201 408.227 454.028 406.013 454.028 403.079C454.028 400.251 453.201 398.117 451.547 396.677C449.947 395.236 447.653 394.516 444.665 394.516H428.981L435.383 388.114V418.363L428.981 411.961H444.665Z" fill="#072C5E"/>
<path d="M479.93 382.993H494.574V439.089H479.93V382.993Z" fill="#072C5E"/>
<path d="M224.069 158.102L256.993 137.524L218.41 188.968C233.821 184.877 262.855 172 278.443 149.302C274.069 141.937 265.797 125.567 267.699 119.005C268.294 115.712 271.102 107.605 277.571 101.514C262.48 112.831 230.654 139.994 224.069 158.102Z" fill="#0078D5"/>
<path d="M304.579 141.726L287.345 129.808C285.576 136.968 282.455 143.461 278.443 149.302C295.603 164.898 303.017 178.903 304.579 183.957H321.813C321.813 163.885 310.323 147.44 304.579 141.726Z" fill="#0078D5"/>
<path d="M321.813 153.645C311.009 137.669 287.036 104.878 277.571 101.514C271.102 107.605 268.294 115.712 267.699 119.005C265.797 125.567 274.069 141.937 278.443 149.302C282.455 143.461 285.576 136.968 287.345 129.808L304.579 141.726L321.813 153.645Z" fill="#FEFEFE"/>
<path d="M128.383 206.459L197.729 158.102H204.52C204.006 162.046 198.964 172.095 182.914 180.737C166.863 189.38 139.872 201.486 128.383 206.459Z" fill="#0175D3"/>
<path d="M416.246 21.7755C386.023 45.234 347.557 93.2826 332.101 114.375C345.694 103.823 375.912 85.9564 389.322 78.3423C387.303 85.4102 360.546 126.218 347.42 145.739C349.859 143.001 361.013 133.82 386.117 119.005C402.178 109.526 412.217 95.0502 417.905 82.7975C412.152 74.9479 400.646 57.5733 400.646 50.872C401.428 46.6764 405.643 34.9831 416.246 21.7755Z" fill="#0078D5"/>
<path d="M465.856 97.3083C479.848 114.38 520.386 131.232 538.906 137.524L527.074 126.359L416.246 21.7755C405.643 34.9831 401.428 46.6764 400.646 50.872C400.646 57.5733 412.152 74.9479 417.905 82.7975C421.107 75.8981 422.93 69.7035 423.672 65.5029C426.546 89.2035 438.865 109.924 453.351 126.359C468.798 143.885 486.711 156.537 498.265 162.732C485.996 149.217 478.086 136.806 473.143 126.359C466.645 112.628 465.271 102.292 465.856 97.3083Z" fill="#FEFEFE"/>
<path d="M538.906 137.524C520.386 131.232 479.848 114.38 465.856 97.3083C465.271 102.292 466.645 112.628 473.143 126.359C498.378 153.615 575.867 183.257 611.458 194.671L587.502 171.597L562.661 147.67L535.603 121.608L527.074 126.359L538.906 137.524Z" fill="#0078D5"/>
<path d="M398.69 166.526C408.638 157.668 428.533 139.465 428.533 137.524C428.533 136.587 433.58 140.366 440.81 145.78C452.289 154.376 469.271 167.092 480.296 171.597L471.317 186.333C460.598 177.97 437.036 160.663 428.533 158.339C421.708 160.804 406.185 167.424 398.69 174.185V166.526Z" fill="#0078D5"/>
<path d="M625.884 162.732C612.078 158.051 582.233 146.457 573.297 137.524C574.318 141.54 576.087 147.629 578.254 153.645C602.323 172.714 647.958 191.113 667.767 197.928L625.884 162.732Z" fill="#0078D5"/>
<path d="M545.137 97.3083L538.906 101.514C540.797 108.923 548.194 128.528 562.661 147.67L587.502 171.597C584.249 168.464 580.945 161.111 578.254 153.645C576.087 147.629 574.318 141.54 573.297 137.524C582.233 146.457 612.078 158.051 625.884 162.732L545.137 97.3083Z" fill="#FEFEFE"/>
<path fill-rule="evenodd" clip-rule="evenodd" d="M766.214 242.417C462.339 167.302 155.903 211.119 40.6697 242.417L197.729 141.695H213.093L273.698 82.7975L309.548 104.991L416.246 0L520.383 97.3083L545.137 75.9688L640.738 153.645L655.249 147.67L766.214 242.417ZM128.383 206.459L197.729 158.102H204.52C204.006 162.046 198.964 172.095 182.914 180.737C166.863 189.38 139.872 201.486 128.383 206.459ZM224.069 158.102L256.993 137.524L218.41 188.968C233.821 184.877 262.855 172 278.443 149.302C295.603 164.898 303.017 178.903 304.579 183.957H321.813C321.813 163.885 310.323 147.44 304.579 141.726L321.813 153.645C311.009 137.669 287.036 104.878 277.571 101.514C262.48 112.831 230.654 139.994 224.069 158.102ZM416.246 21.7755C386.023 45.234 347.557 93.2826 332.101 114.375C345.694 103.823 375.912 85.9564 389.322 78.3423C387.303 85.4102 360.546 126.218 347.42 145.739C349.859 143.001 361.013 133.82 386.117 119.005C402.178 109.526 412.217 95.0502 417.905 82.7975C420.738 89.0688 431.795 106.561 453.351 126.359C468.798 143.885 486.711 156.537 498.265 162.732C485.996 149.217 478.086 136.806 473.143 126.359C498.378 153.615 575.867 183.257 611.458 194.671L587.502 171.597C584.249 168.464 580.945 161.111 578.254 153.645C602.323 172.714 647.958 191.113 667.767 197.928L625.884 162.732L545.137 97.3083L538.906 101.514C540.797 108.923 548.194 128.528 562.661 147.67L535.603 121.608L527.074 126.359L416.246 21.7755ZM398.69 166.526C408.638 157.668 428.533 139.465 428.533 137.524C428.533 136.587 433.58 140.366 440.81 145.78C452.289 154.376 469.271 167.092 480.296 171.597L471.317 186.333C460.598 177.97 437.036 160.663 428.533 158.339C421.708 160.804 406.185 167.424 398.69 174.185V166.526Z" fill="url(#paint5_linear_10_77)"/>
<path d="M423.672 65.5029C422.93 69.7035 421.107 75.8981 417.905 82.7975C420.738 89.0688 431.795 106.561 453.351 126.359C438.865 109.924 426.546 89.2035 423.672 65.5029Z" fill="#0078D5"/>
<path d="M253.882 403.523C254.678 403.978 257.158 406.868 260.707 414.785C169.524 414.785 121.02 407.277 108.166 403.523H253.882Z" fill="#072C5E"/>
<path d="M539.636 403.523C538.839 403.978 536.359 406.868 532.81 414.785C623.994 414.785 672.497 407.277 685.351 403.523H539.636Z" fill="#072C5E"/>
<path d="M685.352 239.078C391.855 168.021 105.74 230.624 0 270.171C51.0178 263.22 87.0017 256.048 98.6164 253.331C339.812 199.372 590.271 221.346 685.352 239.078Z" fill="#071C48"/>
<path d="M119.326 427.837C225.565 459.402 498.198 495.328 738.816 386.514C648.237 451.392 397.528 550.487 119.326 427.837Z" fill="url(#paint6_linear_10_77)"/>
<path d="M160.022 508.544H182.142V514.304H167.342V519.664H180.702V525.384H167.342V530.824H182.542V536.584H160.022V508.544Z" fill="#072C5E"/>
<path d="M189.414 508.544H195.854L210.534 528.144L208.614 528.784V508.544H215.374V536.584H208.974L194.294 517.064L196.254 516.424V536.584H189.414V508.544Z" fill="#072C5E"/>
<path d="M235.339 508.544C237.553 508.544 239.566 508.891 241.379 509.584C243.219 510.251 244.793 511.211 246.099 512.464C247.433 513.691 248.459 515.157 249.179 516.864C249.899 518.571 250.259 520.464 250.259 522.544C250.259 524.651 249.886 526.557 249.139 528.264C248.419 529.971 247.393 531.451 246.059 532.704C244.726 533.957 243.126 534.917 241.259 535.584C239.393 536.251 237.326 536.584 235.059 536.584H223.259V508.544H235.339ZM235.539 530.744C236.606 530.744 237.579 530.557 238.459 530.184C239.339 529.784 240.099 529.224 240.739 528.504C241.406 527.784 241.913 526.931 242.259 525.944C242.606 524.931 242.779 523.824 242.779 522.624C242.779 521.397 242.593 520.291 242.219 519.304C241.846 518.291 241.313 517.424 240.619 516.704C239.953 515.957 239.153 515.397 238.219 515.024C237.313 514.624 236.299 514.424 235.179 514.424H230.579V530.744H235.539Z" fill="#072C5E"/>
<path d="M263.124 525.024C263.124 526.837 263.644 528.277 264.684 529.344C265.751 530.411 267.071 530.944 268.644 530.944C270.218 530.944 271.484 530.424 272.444 529.384C273.431 528.317 273.924 526.864 273.924 525.024V508.544H281.244V525.024C281.244 527.477 280.724 529.611 279.684 531.424C278.671 533.237 277.218 534.637 275.324 535.624C273.431 536.611 271.191 537.104 268.604 537.104C266.018 537.104 263.764 536.611 261.844 535.624C259.924 534.637 258.431 533.237 257.364 531.424C256.324 529.611 255.804 527.477 255.804 525.024V508.544H263.124V525.024ZM264.764 500.264C265.644 500.264 266.364 500.557 266.924 501.144C267.511 501.704 267.804 502.437 267.804 503.344C267.804 504.197 267.511 504.917 266.924 505.504C266.364 506.091 265.644 506.384 264.764 506.384C263.858 506.384 263.111 506.091 262.524 505.504C261.964 504.917 261.684 504.197 261.684 503.344C261.684 502.437 261.964 501.704 262.524 501.144C263.111 500.557 263.858 500.264 264.764 500.264ZM272.444 500.264C273.324 500.264 274.044 500.557 274.604 501.144C275.191 501.704 275.484 502.437 275.484 503.344C275.484 504.197 275.191 504.917 274.604 505.504C274.044 506.091 273.324 506.384 272.444 506.384C271.538 506.384 270.791 506.091 270.204 505.504C269.644 504.917 269.364 504.197 269.364 503.344C269.364 502.437 269.644 501.704 270.204 501.144C270.791 500.557 271.538 500.264 272.444 500.264Z" fill="#072C5E"/>
<path d="M307.965 516.904C306.979 516.291 305.925 515.771 304.805 515.344C303.712 514.891 302.645 514.544 301.605 514.304C300.592 514.037 299.699 513.904 298.925 513.904C298.045 513.904 297.339 514.077 296.805 514.424C296.272 514.744 296.005 515.251 296.005 515.944C296.005 516.637 296.258 517.211 296.765 517.664C297.298 518.091 298.005 518.451 298.885 518.744C299.765 519.037 300.739 519.331 301.805 519.624C302.872 519.917 303.925 520.264 304.965 520.664C306.005 521.064 306.965 521.584 307.845 522.224C308.725 522.837 309.432 523.637 309.965 524.624C310.499 525.611 310.765 526.837 310.765 528.304C310.765 530.197 310.259 531.797 309.245 533.104C308.232 534.384 306.872 535.357 305.165 536.024C303.459 536.664 301.565 536.984 299.485 536.984C297.912 536.984 296.339 536.811 294.765 536.464C293.219 536.091 291.738 535.571 290.325 534.904C288.938 534.211 287.685 533.397 286.565 532.464L289.405 526.824C290.365 527.677 291.445 528.424 292.645 529.064C293.845 529.704 295.059 530.211 296.285 530.584C297.512 530.931 298.605 531.104 299.565 531.104C300.659 531.104 301.512 530.904 302.125 530.504C302.765 530.077 303.085 529.464 303.085 528.664C303.085 527.971 302.819 527.411 302.285 526.984C301.752 526.531 301.045 526.157 300.165 525.864C299.285 525.571 298.312 525.291 297.245 525.024C296.205 524.731 295.152 524.397 294.085 524.024C293.045 523.624 292.085 523.131 291.205 522.544C290.325 521.931 289.619 521.144 289.085 520.184C288.579 519.224 288.325 518.024 288.325 516.584C288.325 514.851 288.779 513.344 289.685 512.064C290.618 510.757 291.925 509.757 293.605 509.064C295.312 508.344 297.285 507.984 299.525 507.984C301.579 507.984 303.592 508.277 305.565 508.864C307.538 509.451 309.259 510.211 310.725 511.144L307.965 516.904Z" fill="#072C5E"/>
<path d="M314.465 508.544H338.505V514.464H330.105V536.584H322.785V514.464H314.465V508.544Z" fill="#072C5E"/>
<path d="M356.475 508.544C360.208 508.544 363.088 509.411 365.115 511.144C367.142 512.851 368.155 515.264 368.155 518.384C368.155 521.664 367.142 524.224 365.115 526.064C363.088 527.877 360.208 528.784 356.475 528.784H351.195V536.584H343.875V508.544H356.475ZM356.475 523.024C357.995 523.024 359.155 522.651 359.955 521.904C360.782 521.157 361.195 520.051 361.195 518.584C361.195 517.171 360.782 516.104 359.955 515.384C359.155 514.664 357.995 514.304 356.475 514.304H351.195V523.024H356.475ZM355.195 526.104H362.315L368.995 536.584H360.715L355.195 526.104Z" fill="#072C5E"/>
<path d="M375.22 508.544H382.54V536.584H375.22V508.544ZM378.9 498.864C379.994 498.864 380.887 499.224 381.58 499.944C382.273 500.637 382.62 501.531 382.62 502.624C382.62 503.717 382.273 504.624 381.58 505.344C380.887 506.037 379.994 506.384 378.9 506.384C377.807 506.384 376.9 506.037 376.18 505.344C375.487 504.624 375.14 503.717 375.14 502.624C375.14 501.531 375.487 500.637 376.18 499.944C376.9 499.224 377.807 498.864 378.9 498.864Z" fill="#072C5E"/>
<path d="M387.474 508.544H394.794L401.434 520.664L407.914 508.544H415.234L401.874 533.584H400.954L387.474 508.544ZM397.794 524.264H405.114V536.584H397.794V524.264Z" fill="#072C5E"/>
<path d="M420.137 508.544H442.257V514.304H427.457V519.664H440.817V525.384H427.457V530.824H442.657V536.584H420.137V508.544Z" fill="#072C5E"/>
<path d="M449.53 508.544H456.85V530.424H468.73V536.584H449.53V508.544Z" fill="#072C5E"/>
<path d="M486.53 508.544H510.61V513.264L495.81 530.784H510.85V536.584H486.01V531.904L500.81 514.344H486.53V508.544Z" fill="#072C5E"/>
<path d="M517.081 508.544H539.201V514.304H524.401V519.664H537.761V525.384H524.401V530.824H539.601V536.584H517.081V508.544Z" fill="#072C5E"/>
<path d="M546.473 508.544H554.433L562.553 525.064L570.633 508.544H578.593V536.584H572.113L572.073 518.624L564.913 533.784H560.193L552.993 518.624V536.584H546.473V508.544Z" fill="#072C5E"/>
<path d="M586.451 508.544H593.771V536.584H586.451V508.544ZM590.131 498.864C591.225 498.864 592.118 499.224 592.811 499.944C593.505 500.637 593.851 501.531 593.851 502.624C593.851 503.717 593.505 504.624 592.811 505.344C592.118 506.037 591.225 506.384 590.131 506.384C589.038 506.384 588.131 506.037 587.411 505.344C586.718 504.624 586.371 503.717 586.371 502.624C586.371 501.531 586.718 500.637 587.411 499.944C588.131 499.224 589.038 498.864 590.131 498.864Z" fill="#072C5E"/>
<path d="M601.625 508.544H608.065L622.745 528.144L620.825 528.784V508.544H627.585V536.584H621.185L606.505 517.064L608.465 516.424V536.584H601.625V508.544Z" fill="#072C5E"/>
<defs>
<linearGradient id="paint0_linear_10_77" x1="395.66" y1="361.289" x2="395.564" y2="227.19" gradientUnits="userSpaceOnUse">
<stop stop-color="#071C48"/>
<stop offset="0.801704" stop-color="#003D88"/>
</linearGradient>
<linearGradient id="paint1_linear_10_77" x1="395.66" y1="361.289" x2="395.564" y2="227.19" gradientUnits="userSpaceOnUse">
<stop stop-color="#071C48"/>
<stop offset="0.801704" stop-color="#003D88"/>
</linearGradient>
<linearGradient id="paint2_linear_10_77" x1="395.66" y1="361.289" x2="395.564" y2="227.19" gradientUnits="userSpaceOnUse">
<stop stop-color="#071C48"/>
<stop offset="0.801704" stop-color="#003D88"/>
</linearGradient>
<linearGradient id="paint3_linear_10_77" x1="395.66" y1="361.289" x2="395.564" y2="227.19" gradientUnits="userSpaceOnUse">
<stop stop-color="#071C48"/>
<stop offset="0.801704" stop-color="#003D88"/>
</linearGradient>
<linearGradient id="paint4_linear_10_77" x1="395.66" y1="361.289" x2="395.564" y2="227.19" gradientUnits="userSpaceOnUse">
<stop stop-color="#071C48"/>
<stop offset="0.801704" stop-color="#003D88"/>
</linearGradient>
<linearGradient id="paint5_linear_10_77" x1="403.442" y1="0" x2="403.442" y2="242.417" gradientUnits="userSpaceOnUse">
<stop stop-color="#00408C"/>
<stop offset="0.5" stop-color="#003982"/>
<stop offset="1" stop-color="#001241"/>
</linearGradient>
<linearGradient id="paint6_linear_10_77" x1="849.186" y1="386.514" x2="239.727" y2="454.261" gradientUnits="userSpaceOnUse">
<stop stop-color="#0260B3"/>
<stop offset="1" stop-color="#012460"/>
</linearGradient>
</defs>
</svg>
