<svg width="739" height="280" viewBox="0 0 739 280" fill="none" xmlns="http://www.w3.org/2000/svg">
<path d="M163.44 54.7974H249.082V71.5843L196.445 133.895H249.936V154.523H161.591V137.879L214.228 75.4254H163.44V54.7974Z" fill="#FEFEFE"/>
<path d="M370.875 54.7974C384.153 54.7974 394.396 57.8797 401.604 64.0444C408.812 70.1143 412.416 78.6974 412.416 89.7939C412.416 101.459 408.812 110.564 401.604 117.108C394.396 123.558 384.153 126.782 370.875 126.782H352.097V154.523H326.063V54.7974H370.875ZM370.875 106.296C376.281 106.296 380.407 104.969 383.252 102.313C386.192 99.6574 387.662 95.7215 387.662 90.5052C387.662 85.4786 386.192 81.685 383.252 79.1242C380.407 76.5635 376.281 75.2831 370.875 75.2831H352.097V106.296H370.875ZM366.323 117.251H391.646L415.404 154.523H385.955L366.323 117.251Z" fill="#FEFEFE"/>
<path d="M426.752 54.7974H454.778L479.674 127.351L504.712 54.7974H531.457L492.335 154.523H465.448L426.752 54.7974Z" fill="#FEFEFE"/>
<path d="M549.442 54.7974H628.114V75.2831H575.477V94.3463H622.992V114.69H575.477V134.038H629.536V154.523H549.442V54.7974Z" fill="#FEFEFE"/>
<path fill-rule="evenodd" clip-rule="evenodd" d="M298.132 54.7974H272.098V71.5843L298.132 66.4933V54.7974ZM272.098 81.0868V154.523H298.132V75.4254L272.098 81.0868Z" fill="#FEFEFE"/>
<path d="M293.075 176.227H307.719L321.003 200.474L333.966 176.227H348.61L321.883 226.321H320.042L293.075 176.227ZM313.721 207.676H328.365V232.323H313.721V207.676Z" fill="#FEFEFE"/>
<path d="M372.29 176.227H387.334L410.86 232.323H395.256L379.412 190.871L363.247 232.323H348.203L372.29 176.227ZM362.607 211.197H395.336V222.24H362.607V211.197Z" fill="#FEFEFE"/>
<path d="M445.385 176.227C452.534 176.227 458.082 177.961 462.03 181.429C465.978 184.843 467.952 189.671 467.952 195.913C467.952 202.474 465.978 207.596 462.03 211.277C458.082 214.905 452.534 216.718 445.385 216.718H428.981L435.382 210.317V232.323H420.738V176.227H445.385ZM444.665 205.195C447.652 205.195 449.946 204.448 451.547 202.955C453.201 201.461 454.028 199.247 454.028 196.313C454.028 193.485 453.201 191.351 451.547 189.911C449.946 188.471 447.652 187.75 444.665 187.75H428.981L435.382 181.348V211.597L428.981 205.195H444.665Z" fill="#FEFEFE"/>
<path d="M479.93 176.227H494.574V232.323H479.93V176.227Z" fill="#FEFEFE"/>
<path d="M253.882 196.757C254.678 197.212 257.158 200.102 260.707 208.019C169.524 208.019 121.02 200.511 108.166 196.757H253.882Z" fill="#FEFEFE"/>
<path d="M539.635 196.757C538.839 197.212 536.359 200.102 532.81 208.019C623.993 208.019 672.497 200.511 685.351 196.757H539.635Z" fill="#FEFEFE"/>
<path d="M685.352 32.3117C391.855 -38.7455 105.74 23.858 0 63.4049C51.0178 56.4541 87.0017 49.282 98.6164 46.5648C339.812 -7.39392 590.271 14.5799 685.352 32.3117Z" fill="#FEFEFE"/>
<path d="M119.326 221.071C225.565 252.636 498.198 288.562 738.816 179.748C648.237 244.626 397.527 343.721 119.326 221.071Z" fill="#FEFEFE"/>
</svg>
